<?xml version="1.0" encoding="UTF-8"?>
<svg xmlns="http://www.w3.org/2000/svg" id="Layer_2" viewBox="0 0 675.86 104.62">
  <defs>
    <style>.cls-1{fill:#2649a7;}</style>
  </defs>
  <g id="Layer_1-2">
    <path class="cls-1" d="M239.62,33.8l-13.15,39.35h-5.9l-10.74-31.42-10.74,31.42h-6.01l-13.15-39.35h5.79l10.62,31.98,11.07-31.98h5.17l10.85,32.15,10.85-32.15h5.34Z"></path>
    <path class="cls-1" d="M252.32,70.98c-3.19-1.74-5.69-4.15-7.5-7.22s-2.73-6.5-2.73-10.29.91-7.21,2.73-10.29c1.82-3.07,4.32-5.48,7.5-7.22,3.18-1.74,6.76-2.61,10.74-2.61s7.5.87,10.68,2.61c3.18,1.74,5.68,4.14,7.48,7.19,1.8,3.05,2.7,6.49,2.7,10.31s-.9,7.26-2.7,10.31c-1.8,3.05-4.29,5.45-7.48,7.2-3.19,1.74-6.75,2.61-10.68,2.61s-7.55-.87-10.74-2.61ZM270.84,66.63c2.3-1.31,4.12-3.12,5.45-5.42,1.33-2.3,2-4.88,2-7.73s-.67-5.42-2-7.73c-1.33-2.3-3.15-4.11-5.45-5.42-2.3-1.31-4.9-1.97-7.79-1.97s-5.5.66-7.84,1.97c-2.34,1.31-4.18,3.12-5.51,5.42s-2,4.88-2,7.73.67,5.42,2,7.73,3.17,4.11,5.51,5.42c2.34,1.31,4.96,1.97,7.84,1.97s5.48-.66,7.79-1.97Z"></path>
    <path class="cls-1" d="M291.73,33.8h5.62v34.46h21.3v4.89h-26.92v-39.35Z"></path>
    <path class="cls-1" d="M326.83,72.22c-2.75-.92-4.92-2.11-6.49-3.57l2.08-4.38c1.5,1.35,3.42,2.44,5.76,3.29,2.34.84,4.75,1.26,7.22,1.26,3.26,0,5.7-.55,7.31-1.66,1.61-1.1,2.42-2.58,2.42-4.41,0-1.35-.44-2.45-1.32-3.29-.88-.84-1.97-1.49-3.26-1.94-1.29-.45-3.12-.96-5.48-1.52-2.96-.71-5.35-1.42-7.17-2.14-1.82-.71-3.37-1.81-4.67-3.29-1.29-1.48-1.94-3.48-1.94-5.99,0-2.1.55-3.99,1.66-5.68,1.11-1.69,2.78-3.04,5.03-4.05s5.04-1.52,8.38-1.52c2.32,0,4.61.3,6.86.9,2.25.6,4.18,1.46,5.79,2.59l-1.85,4.5c-1.65-1.05-3.41-1.84-5.28-2.39-1.87-.54-3.71-.81-5.51-.81-3.19,0-5.57.58-7.17,1.74-1.59,1.16-2.39,2.66-2.39,4.5,0,1.35.45,2.44,1.35,3.29.9.84,2.01,1.5,3.34,1.97,1.33.47,3.14.97,5.42,1.49,2.96.71,5.34,1.42,7.14,2.14,1.8.71,3.34,1.8,4.64,3.26,1.29,1.46,1.94,3.43,1.94,5.9,0,2.06-.56,3.94-1.69,5.65-1.12,1.71-2.83,3.05-5.12,4.05-2.29.99-5.1,1.49-8.43,1.49-2.96,0-5.82-.46-8.57-1.38Z"></path>
    <path class="cls-1" d="M365.3,38.69h-13.49v-4.89h32.55v4.89h-13.49v34.46h-5.57v-34.46Z"></path>
    <path class="cls-1" d="M418.25,68.26v4.89h-28.55v-39.35h27.77v4.89h-22.15v12.08h19.73v4.78h-19.73v12.7h22.93Z"></path>
    <path class="cls-1" d="M426.57,33.8h5.62v39.35h-5.62v-39.35Z"></path>
    <path class="cls-1" d="M477.05,33.8v39.35h-4.61l-23.61-29.34v29.34h-5.62v-39.35h4.61l23.61,29.34v-29.34h5.62Z"></path>
    <path class="cls-1" d="M529.77,37.45c2.92,2.44,4.38,5.79,4.38,10.06s-1.46,7.63-4.38,10.06c-2.92,2.44-6.93,3.65-12.03,3.65h-9.72v11.92h-5.62v-39.35h15.34c5.1,0,9.11,1.22,12.03,3.65ZM525.73,54.06c1.87-1.52,2.81-3.7,2.81-6.55s-.94-5.03-2.81-6.55c-1.87-1.52-4.59-2.28-8.15-2.28h-9.56v17.65h9.56c3.56,0,6.28-.76,8.15-2.28Z"></path>
    <path class="cls-1" d="M545.79,69.1c-2.92-3-4.38-7.31-4.38-12.93v-22.37h5.62v22.15c0,8.43,3.69,12.65,11.07,12.65,3.6,0,6.35-1.04,8.26-3.12s2.87-5.26,2.87-9.53v-22.15h5.45v22.37c0,5.66-1.46,9.98-4.38,12.96-2.92,2.98-7.01,4.47-12.25,4.47s-9.33-1.5-12.25-4.5Z"></path>
    <path class="cls-1" d="M592.5,38.69h-13.49v-4.89h32.55v4.89h-13.49v34.46h-5.57v-34.46Z"></path>
    <path class="cls-1" d="M625.27,38.69h-13.49v-4.89h32.55v4.89h-13.49v34.46h-5.57v-34.46Z"></path>
    <path class="cls-1" d="M652.06,72.22c-2.75-.92-4.92-2.11-6.49-3.57l2.08-4.38c1.5,1.35,3.42,2.44,5.76,3.29,2.34.84,4.75,1.26,7.22,1.26,3.26,0,5.7-.55,7.31-1.66,1.61-1.1,2.42-2.58,2.42-4.41,0-1.35-.44-2.45-1.32-3.29-.88-.84-1.97-1.49-3.26-1.94-1.29-.45-3.12-.96-5.48-1.52-2.96-.71-5.35-1.42-7.17-2.14-1.82-.71-3.37-1.81-4.67-3.29-1.29-1.48-1.94-3.48-1.94-5.99,0-2.1.55-3.99,1.66-5.68,1.11-1.69,2.78-3.04,5.03-4.05s5.04-1.52,8.38-1.52c2.32,0,4.61.3,6.86.9,2.25.6,4.18,1.46,5.79,2.59l-1.85,4.5c-1.65-1.05-3.41-1.84-5.28-2.39-1.87-.54-3.71-.81-5.51-.81-3.19,0-5.57.58-7.17,1.74-1.59,1.16-2.39,2.66-2.39,4.5,0,1.35.45,2.44,1.35,3.29.9.84,2.01,1.5,3.34,1.97,1.33.47,3.14.97,5.42,1.49,2.96.71,5.34,1.42,7.14,2.14,1.8.71,3.34,1.8,4.64,3.26,1.29,1.46,1.94,3.43,1.94,5.9,0,2.06-.56,3.94-1.69,5.65-1.12,1.71-2.83,3.05-5.12,4.05-2.29.99-5.1,1.49-8.43,1.49-2.96,0-5.82-.46-8.57-1.38Z"></path>
    <path class="cls-1" d="M157.92,26.16c.1,1.05.1,2.68,0,3.74-.99,10.89-8.94,19.53-18.89,23.25-3.81,1.42-10.44,2.68-14.53,2.91-2.96.17-5.98-.16-8.95-.02-.21-.97.12-.67.53-.93,5.38-3.44,8.92-4.88,12.52-10.72,11.04-17.94-2.21-38.62-21.99-40.63-3.31-.34-7.14,1.58-6.85-3.33h29.28c1.08,0,5.11,1.09,6.44,1.45,11.48,3.16,21.27,11.83,22.43,24.28Z"></path>
    <path class="cls-1" d="M107.62,104.55h-3.65S67.03,9.69,67.03,9.69c-2.54-4.25-6.91-7.72-12.12-7.19V.01s35.1.83,35.1.83l28.37,73.76-10.76,29.94Z"></path>
    <path class="cls-1" d="M44.53.01v2.49c-4.57-1.52-9.98,2.01-9.04,7.16l26.51,67.75-11.08,27.21-2.38-.09L9.17,8.57c-1.12-2.27-3.06-4.46-5.53-5.27-1.04-.34-2.11-.21-2.87-.46C-.38,2.47-.23,0,1.12,0h43.41Z"></path>
  </g>
</svg>
