<?xml version="1.0" encoding="UTF-8"?>
<svg xmlns="http://www.w3.org/2000/svg" id="Layer_2" viewBox="0 0 232.39 153.89">
  <defs>
    <style>.cls-1{fill:#2649a7;}</style>
  </defs>
  <g id="Layer_1-2">
    <path class="cls-1" d="M232.29,38.48c.14,1.54.14,3.95,0,5.49-1.46,16.02-13.15,28.73-27.79,34.2-5.6,2.09-15.36,3.94-21.37,4.29-4.35.25-8.8-.23-13.16-.03-.31-1.43.18-.98.78-1.37,7.91-5.06,13.12-7.18,18.41-15.77,16.23-26.38-3.25-56.81-32.34-59.76-4.87-.49-10.5,2.32-10.07-4.89h43.07c1.58,0,7.52,1.6,9.47,2.14,16.89,4.64,31.28,17.41,32.99,35.71Z"></path>
    <path class="cls-1" d="M158.29,153.78h-5.37S98.59,14.26,98.59,14.26c-3.73-6.25-10.16-11.36-17.83-10.57V.02s51.63,1.22,51.63,1.22l41.73,108.5-15.83,44.04Z"></path>
    <path class="cls-1" d="M65.49.02v3.66c-6.72-2.24-14.68,2.96-13.29,10.53l39,99.65-16.3,40.02-3.5-.14L13.49,12.61c-1.65-3.34-4.5-6.56-8.13-7.75-1.53-.5-3.1-.31-4.22-.67C-.56,3.64-.34,0,1.64,0l63.85.02Z"></path>
  </g>
</svg>
